# xmcd
#
# Track frame offsets:
#	150
#	4617
#	7603
#	10424
#	14847
#	18503
#	24457
#	31499
#	35917
#	41655
#	49890
#	54090
#	56428
#	58708
#	66529
#	69478
#	71439
#
# Disc length: 1015 seconds
#
# Revision: 0
# Processed by: cddbd v1.5.2PL0 Copyright (c) Steve Scherf et al.
# Submitted via: dBpowerAMP V4.0
#
DISCID=e103f511
DTITLE=Various Artist - 17 Shocks Terror
DYEAR=1900
DGENRE=Hardcore
TTITLE0=Gawj - Fuck the crew, burn the core
TTITLE1=Velcro face
TTITLE2=If this sytem sucks
TTITLE3=Crutch of the hopeless 
TTITLE4=Hypocrite
TTITLE5=Just throw money at it
TTITLE6=Don't give a shit about you
TTITLE7=Everyday brutalities
TTITLE8=Swill of the arseholes
TTITLE9=In the blood and shit
TTITLE10=Die with all your regrets
TTITLE11=The blaze
TTITLE12=A disease like you
TTITLE13=88 Skinhead/Panzer Temper
TTITLE14=Short n' sour
TTITLE15=Blood lust - conquest
TTITLE16=..............!!!
EXTD=
EXTT0=
EXTT1=
EXTT2=
EXTT3=
EXTT4=
EXTT5=
EXTT6=
EXTT7=
EXTT8=
EXTT9=
EXTT10=
EXTT11=
EXTT12=
EXTT13=
EXTT14=
EXTT15=
EXTT16=
PLAYORDER=
